<svg id="Layer_1" data-name="Layer 1" xmlns="http://www.w3.org/2000/svg" viewBox="0 0 1621.15 1080"><defs><style>.cls-1{fill:#13928e;}.cls-2,.cls-5,.cls-6{fill:#1ca099;}.cls-3{fill:#25afa5;}.cls-4{fill:#75d1ca;}.cls-5{font-size:256.7px;}.cls-10,.cls-5,.cls-6{font-family:MyriadPro-Regular, Myriad Pro;}.cls-6{font-size:27.75px;}.cls-7{letter-spacing:-0.03em;}.cls-8{letter-spacing:0em;}.cls-9{letter-spacing:-0.01em;}.cls-10{font-size:25.31px;fill:#fff;}.cls-11{letter-spacing:0em;}</style></defs><title>404_electric_pc</title><path class="cls-1" d="M1919.82,0V1080H1358.24c-51.35-61.35-134.39-190-131.7-343.12,1.72-97.53,41.78-138.28,98.44-184.22,52-42.19-32.43-134.4-46.41-149.07C1220.92,343.13,877.83,164.85,922.54,0Z" transform="translate(-298.67)"/><path class="cls-2" d="M1919.82,0V1080h-518c-51.34-61.35-134.38-190-131.7-343.12,1.72-97.53,41.78-138.28,98.44-184.22,52-42.19-32.43-134.4-46.4-149.07C1264.51,343.13,921.43,164.85,966.13,0Z" transform="translate(-298.67)"/><path class="cls-3" d="M1919.82,0V1071.56h-442c-51.35-61.35-134.38-190-131.7-343.12,1.72-97.53,41.78-138.28,98.44-184.22,52-42.19-32.43-134.4-46.41-149.06C1341.43,335.71,1009,162.46,1040.11,0Z" transform="translate(-298.67)"/><path class="cls-1" d="M1521.78,224.41h93A94.15,94.15,0,0,1,1709,318.56v86.58a0,0,0,0,1,0,0H1427.62a0,0,0,0,1,0,0V318.56A94.15,94.15,0,0,1,1521.78,224.41Z" transform="translate(-275.28 729.39) rotate(-26.37)"/><ellipse class="cls-4" cx="1607.57" cy="394.3" rx="140.88" ry="25.82" transform="translate(-306.51 755.12) rotate(-26.37)"/><path class="cls-1" d="M1587.45,582.15h302.34a0,0,0,0,1,0,0v89.38A107.5,107.5,0,0,1,1782.29,779H1695a107.5,107.5,0,0,1-107.5-107.5V582.15A0,0,0,0,1,1587.45,582.15Z" transform="translate(-427.05 698.06) rotate(-21.91)"/><ellipse class="cls-4" cx="1702.44" cy="591.01" rx="151.4" ry="28.12" transform="translate(-396.23 678.08) rotate(-21.91)"/><text class="cls-5" transform="translate(0 431.76)">404</text><text class="cls-6" transform="translate(115.23 487.63)"><tspan class="cls-7">P</tspan><tspan class="cls-8" x="14.04" y="0">age not </tspan><tspan class="cls-9" x="108.4" y="0">f</tspan><tspan x="116.14" y="0">ound</tspan></text><rect class="cls-2" x="65.15" y="631.75" width="288.28" height="70.31" rx="25"/><text class="cls-10" transform="translate(158.04 677.14) scale(1.05 1)"><tspan class="cls-11">G</tspan><tspan x="16.48" y="0">o Home</tspan></text><path class="cls-1" d="M1597.72,217.84c-16.83,5.84-47,10.77-52,12.79-14.16,5.68-111.6-22.25-138.92-90.3-14.7-36.25-7.75-96.57,3.47-140.33H1373.1c-11.1,52.06-13,110.15,5.71,156.87,46.76,116.42,179.61,108.12,209.84,96,11.09-4.44,17.82-15.93,19.34-27.08v-.13A7.72,7.72,0,0,0,1597.72,217.84Z" transform="translate(-298.67)"/><path class="cls-1" d="M1828.16,928c-51.87-47.09-44.7-147.81-34.93-159.4,3.43-4.08,17.8-31,28.58-45,3.36-4.39,1.51-10.76-3.58-12.13l-.12,0c-10.48-2-23,.7-30.62,9.79-20.84,24.74-72.12,147.54,16.63,228.12,30.24,27.47,72.78,43.37,115.7,51.1v-36C1884.93,958.37,1848.64,946.76,1828.16,928Z" transform="translate(-298.67)"/><rect class="cls-1" x="1636.33" y="388.23" width="107.52" height="22.5" rx="8" transform="translate(892.33 -1263.92) rotate(60)"/><rect class="cls-1" x="1521.02" y="448.7" width="107.52" height="22.5" rx="8" transform="translate(887.04 -1133.83) rotate(60)"/><ellipse class="cls-1" cx="1757.48" cy="566.9" rx="20.39" ry="13.13" transform="translate(-383.26 696.88) rotate(-21.91)"/><ellipse class="cls-1" cx="1652.01" cy="609.09" rx="20.39" ry="13.13" transform="translate(-406.62 660.57) rotate(-21.91)"/></svg>