<svg id="Layer_1" data-name="Layer 1" xmlns="http://www.w3.org/2000/svg" viewBox="0 0 942.33 768"><defs><style>.cls-1{fill:#13928e;}.cls-2,.cls-5,.cls-6{fill:#1ca099;}.cls-3{fill:#25afa5;}.cls-4{fill:#75d1ca;}.cls-5{font-size:182.54px;}.cls-5,.cls-6,.cls-9{font-family:MyriadPro-Regular, Myriad Pro;}.cls-6{font-size:19.73px;}.cls-7{letter-spacing:-0.03em;}.cls-8{letter-spacing:-0.01em;}.cls-9{font-size:18px;fill:#fff;}.cls-10{letter-spacing:0em;}</style></defs><title>404_electric</title><path class="cls-1" d="M1024,0V768H624.65C588.14,724.37,529.09,632.91,531,524c1.22-69.35,29.71-98.33,70-131,37-30-23.06-95.57-33-106C527,244,283,117.23,314.82,0Z" transform="translate(-81.67)"/><path class="cls-2" d="M1024,0V768H655.65C619.14,724.37,560.09,632.91,562,524c1.22-69.35,29.71-98.33,70-131,37-30-23.06-95.57-33-106C558,244,314,117.23,345.82,0Z" transform="translate(-81.67)"/><path class="cls-3" d="M1024,0V762H709.65C673.14,718.37,614.09,626.91,616,518c1.22-69.35,29.71-98.33,70-131,37-30-23.06-95.57-33-106C612.7,238.73,376.29,115.53,398.43,0Z" transform="translate(-81.67)"/><path class="cls-1" d="M768.14,159.58h11.75A94.15,94.15,0,0,1,874,253.73V288.1a0,0,0,0,1,0,0H674a0,0,0,0,1,0,0V253.73a94.15,94.15,0,0,1,94.15-94.15Z" transform="translate(-100.55 367.12) rotate(-26.37)"/><ellipse class="cls-4" cx="801.95" cy="280.39" rx="100.18" ry="18.36" transform="translate(-122.76 385.41) rotate(-26.37)"/><path class="cls-1" d="M787.65,414h215a0,0,0,0,1,0,0v32.5A107.5,107.5,0,0,1,895.15,554h0a107.5,107.5,0,0,1-107.5-107.5V414A0,0,0,0,1,787.65,414Z" transform="translate(-197.62 369.05) rotate(-21.91)"/><ellipse class="cls-4" cx="869.42" cy="420.27" rx="107.67" ry="20" transform="translate(-175.7 354.85) rotate(-21.91)"/><text class="cls-5" transform="translate(0 361.79)">404</text><text class="cls-6" transform="translate(81.94 401.51)"><tspan class="cls-7">P</tspan><tspan x="9.98" y="0">age not </tspan><tspan class="cls-8" x="77.08" y="0">f</tspan><tspan x="82.59" y="0">ound</tspan></text><rect class="cls-2" x="46.33" y="504" width="205" height="50" rx="25"/><text class="cls-9" transform="translate(112.38 536.28) scale(1.05 1)"><tspan class="cls-10">G</tspan><tspan x="11.72" y="0">o Home</tspan></text><path class="cls-1" d="M795,154.91c-12,4.15-33.4,7.66-37,9.09-10.07,4-79.36-15.82-98.79-64.21C648.76,74,653.7,31.12,661.68,0H635.22c-7.89,37-9.28,78.33,4.06,111.55C672.53,194.34,767,188.44,788.5,179.8c7.89-3.16,12.67-11.33,13.75-19.26v-.09A5.49,5.49,0,0,0,795,154.91Z" transform="translate(-81.67)"/><path class="cls-1" d="M958.82,659.94C921.93,626.45,927,554.83,934,546.59c2.44-2.9,12.66-22,20.32-32,2.39-3.12,1.08-7.65-2.54-8.62l-.09,0c-7.45-1.46-16.33.5-21.77,7-14.82,17.59-51.29,104.92,11.82,162.22,21.51,19.53,51.76,30.84,82.28,36.34V685.78C999.19,681.51,973.38,673.25,958.82,659.94Z" transform="translate(-81.67)"/><rect class="cls-1" x="822.41" y="276.07" width="76.46" height="16" rx="8" transform="translate(594.66 -603.3) rotate(60)"/><rect class="cls-1" x="740.41" y="319.07" width="76.46" height="16" rx="8" transform="translate(590.9 -510.78) rotate(60)"/><ellipse class="cls-1" cx="908.56" cy="403.13" rx="14.5" ry="9.33" transform="translate(-166.48 368.22) rotate(-21.91)"/><ellipse class="cls-1" cx="833.56" cy="433.13" rx="14.5" ry="9.33" transform="translate(-183.09 342.39) rotate(-21.91)"/></svg>